<svg xmlns="http://www.w3.org/2000/svg" viewBox="0 0 1820.5 982.02"><defs><style>.cls-1,.cls-2,.cls-4{fill:#fff;}.cls-1,.cls-3,.cls-4,.cls-5,.cls-6{stroke:#000;stroke-miterlimit:10;}.cls-3,.cls-5{fill:none;}.cls-4,.cls-5{stroke-width:2px;}</style></defs><title>cityscape1820</title><g id="horizontalLine"><line class="cls-1" y1="924.52" x2="1820.5" y2="924.52"/></g><g id="skyscraper1"><rect class="cls-2" x="27.44" y="249.53" width="183.46" height="679.43" rx="11"/><path d="M199.4,250.52a10,10,0,0,1,10,10V918a10,10,0,0,1-10,10H37.94a10,10,0,0,1-10-10V260.52a10,10,0,0,1,10-10H199.4m0-2H37.94a12,12,0,0,0-12,12V918a12,12,0,0,0,12,12H199.4a12,12,0,0,0,12-12V260.52a12,12,0,0,0-12-12Z" transform="translate(0.5 0.02)"/><rect class="cls-2" x="38.99" y="231.05" width="160.36" height="18.02" rx="3"/><rect class="cls-3" x="38.99" y="231.05" width="160.36" height="18.02" rx="3"/><rect class="cls-2" x="48.06" y="213.03" width="142.23" height="18.02" rx="3"/><rect class="cls-3" x="48.06" y="213.03" width="142.23" height="18.02" rx="3"/><rect class="cls-2" x="55.72" y="196.07" width="126.89" height="16.96" rx="3"/><rect class="cls-3" x="55.72" y="196.07" width="126.89" height="16.96" rx="3"/><rect class="cls-1" x="110.46" y="170.64" width="17.43" height="25.43"/><polygon class="cls-1" points="114.63 170.18 123.71 170.18 118.03 0.02 114.63 170.18"/><rect class="cls-2" x="37.95" y="268.67" width="19.52" height="32.53" rx="3"/><rect class="cls-3" x="37.95" y="268.67" width="19.52" height="32.53" rx="3"/><rect class="cls-2" x="37.95" y="268.67" width="19.52" height="32.53" rx="3"/><rect class="cls-3" x="37.95" y="268.67" width="19.52" height="32.53" rx="3"/><rect class="cls-2" x="181.57" y="268.99" width="19.52" height="32.53" rx="3"/><rect class="cls-3" x="181.57" y="268.99" width="19.52" height="32.53" rx="3"/><rect class="cls-2" x="181.57" y="268.99" width="19.52" height="32.53" rx="3"/><rect class="cls-3" x="181.57" y="268.99" width="19.52" height="32.53" rx="3"/><rect class="cls-2" x="65.14" y="268.67" width="19.52" height="32.53" rx="3"/><rect class="cls-3" x="65.14" y="268.67" width="19.52" height="32.53" rx="3"/><rect class="cls-2" x="65.14" y="268.67" width="19.52" height="32.53" rx="3"/><rect class="cls-3" x="65.14" y="268.67" width="19.52" height="32.53" rx="3"/><rect class="cls-2" x="93.72" y="268.67" width="19.52" height="32.53" rx="3"/><rect class="cls-3" x="93.72" y="268.67" width="19.52" height="32.53" rx="3"/><rect class="cls-2" x="93.72" y="268.67" width="19.52" height="32.53" rx="3"/><rect class="cls-3" x="93.72" y="268.67" width="19.52" height="32.53" rx="3"/><rect class="cls-2" x="123.01" y="268.67" width="19.52" height="32.53" rx="3"/><rect class="cls-3" x="123.01" y="268.67" width="19.52" height="32.53" rx="3"/><rect class="cls-2" x="123.01" y="268.67" width="19.52" height="32.53" rx="3"/><rect class="cls-3" x="123.01" y="268.67" width="19.52" height="32.53" rx="3"/><rect class="cls-2" x="152.99" y="268.67" width="19.52" height="32.53" rx="3"/><rect class="cls-3" x="152.99" y="268.67" width="19.52" height="32.53" rx="3"/><rect class="cls-2" x="152.99" y="268.67" width="19.52" height="32.53" rx="3"/><rect class="cls-3" x="152.99" y="268.67" width="19.52" height="32.53" rx="3"/><rect class="cls-2" x="37.95" y="317.42" width="19.52" height="32.53" rx="3"/><rect class="cls-3" x="37.95" y="317.42" width="19.52" height="32.53" rx="3"/><rect class="cls-2" x="181.57" y="317.74" width="19.52" height="32.53" rx="3"/><rect class="cls-3" x="181.57" y="317.74" width="19.52" height="32.53" rx="3"/><rect class="cls-2" x="65.14" y="317.42" width="19.52" height="32.53" rx="3"/><rect class="cls-3" x="65.14" y="317.42" width="19.52" height="32.53" rx="3"/><rect class="cls-2" x="93.72" y="317.42" width="19.52" height="32.53" rx="3"/><rect class="cls-3" x="93.72" y="317.42" width="19.52" height="32.53" rx="3"/><rect class="cls-2" x="123.01" y="317.42" width="19.52" height="32.53" rx="3"/><rect class="cls-3" x="123.01" y="317.42" width="19.52" height="32.53" rx="3"/><rect class="cls-2" x="152.99" y="317.42" width="19.52" height="32.53" rx="3"/><rect class="cls-3" x="152.99" y="317.42" width="19.52" height="32.53" rx="3"/><rect class="cls-2" x="37.95" y="360.87" width="19.52" height="32.53" rx="3"/><rect class="cls-3" x="37.95" y="360.87" width="19.52" height="32.53" rx="3"/><rect class="cls-2" x="37.95" y="360.87" width="19.52" height="32.53" rx="3"/><rect class="cls-3" x="37.95" y="360.87" width="19.52" height="32.53" rx="3"/><rect class="cls-2" x="181.57" y="361.19" width="19.52" height="32.53" rx="3"/><rect class="cls-3" x="181.57" y="361.19" width="19.52" height="32.53" rx="3"/><rect class="cls-2" x="181.57" y="361.19" width="19.52" height="32.53" rx="3"/><rect class="cls-3" x="181.57" y="361.19" width="19.52" height="32.53" rx="3"/><rect class="cls-2" x="65.14" y="360.87" width="19.52" height="32.53" rx="3"/><rect class="cls-3" x="65.14" y="360.87" width="19.52" height="32.53" rx="3"/><rect class="cls-2" x="65.14" y="360.87" width="19.52" height="32.53" rx="3"/><rect class="cls-3" x="65.14" y="360.87" width="19.52" height="32.53" rx="3"/><rect class="cls-2" x="93.72" y="360.87" width="19.52" height="32.53" rx="3"/><rect class="cls-3" x="93.72" y="360.87" width="19.52" height="32.53" rx="3"/><rect class="cls-2" x="93.72" y="360.87" width="19.52" height="32.53" rx="3"/><rect class="cls-3" x="93.72" y="360.87" width="19.52" height="32.53" rx="3"/><rect class="cls-2" x="123.01" y="360.87" width="19.52" height="32.53" rx="3"/><rect class="cls-3" x="123.01" y="360.87" width="19.52" height="32.53" rx="3"/><rect class="cls-2" x="123.01" y="360.87" width="19.52" height="32.53" rx="3"/><rect class="cls-3" x="123.01" y="360.87" width="19.52" height="32.53" rx="3"/><rect class="cls-2" x="152.99" y="360.87" width="19.52" height="32.53" rx="3"/><rect class="cls-3" x="152.99" y="360.87" width="19.52" height="32.53" rx="3"/><rect class="cls-2" x="152.99" y="360.87" width="19.52" height="32.53" rx="3"/><rect class="cls-3" x="152.99" y="360.87" width="19.52" height="32.53" rx="3"/><rect class="cls-2" x="37.95" y="409.62" width="19.52" height="32.53" rx="3"/><rect class="cls-3" x="37.95" y="409.62" width="19.52" height="32.53" rx="3"/><rect class="cls-2" x="181.57" y="409.94" width="19.52" height="32.53" rx="3"/><rect class="cls-3" x="181.57" y="409.94" width="19.52" height="32.53" rx="3"/><rect class="cls-2" x="65.14" y="409.62" width="19.52" height="32.53" rx="3"/><rect class="cls-3" x="65.14" y="409.62" width="19.52" height="32.53" rx="3"/><rect class="cls-2" x="93.72" y="409.62" width="19.52" height="32.53" rx="3"/><rect class="cls-3" x="93.72" y="409.62" width="19.52" height="32.53" rx="3"/><rect class="cls-2" x="123.01" y="409.62" width="19.52" height="32.53" rx="3"/><rect class="cls-3" x="123.01" y="409.62" width="19.52" height="32.53" rx="3"/><rect class="cls-2" x="152.99" y="409.62" width="19.52" height="32.53" rx="3"/><rect class="cls-3" x="152.99" y="409.62" width="19.52" height="32.53" rx="3"/><rect class="cls-2" x="37.95" y="454.13" width="19.52" height="32.53" rx="3"/><rect class="cls-3" x="37.95" y="454.13" width="19.52" height="32.53" rx="3"/><rect class="cls-2" x="37.95" y="454.13" width="19.52" height="32.53" rx="3"/><rect class="cls-3" x="37.95" y="454.13" width="19.52" height="32.53" rx="3"/><rect class="cls-2" x="181.57" y="454.45" width="19.52" height="32.53" rx="3"/><rect class="cls-3" x="181.57" y="454.45" width="19.52" height="32.53" rx="3"/><rect class="cls-2" x="181.57" y="454.45" width="19.52" height="32.53" rx="3"/><rect class="cls-3" x="181.57" y="454.45" width="19.52" height="32.53" rx="3"/><rect class="cls-2" x="65.14" y="454.13" width="19.52" height="32.53" rx="3"/><rect class="cls-3" x="65.14" y="454.13" width="19.52" height="32.53" rx="3"/><rect class="cls-2" x="65.14" y="454.13" width="19.52" height="32.53" rx="3"/><rect class="cls-3" x="65.14" y="454.13" width="19.52" height="32.53" rx="3"/><rect class="cls-2" x="93.72" y="454.13" width="19.52" height="32.53" rx="3"/><rect class="cls-3" x="93.72" y="454.13" width="19.52" height="32.53" rx="3"/><rect class="cls-2" x="93.72" y="454.13" width="19.52" height="32.53" rx="3"/><rect class="cls-3" x="93.72" y="454.13" width="19.52" height="32.53" rx="3"/><rect class="cls-2" x="123.01" y="454.13" width="19.52" height="32.53" rx="3"/><rect class="cls-3" x="123.01" y="454.13" width="19.52" height="32.53" rx="3"/><rect class="cls-2" x="123.01" y="454.13" width="19.52" height="32.53" rx="3"/><rect class="cls-3" x="123.01" y="454.13" width="19.52" height="32.53" rx="3"/><rect class="cls-2" x="152.99" y="454.13" width="19.52" height="32.53" rx="3"/><rect class="cls-3" x="152.99" y="454.13" width="19.52" height="32.53" rx="3"/><rect class="cls-2" x="152.99" y="454.13" width="19.52" height="32.53" rx="3"/><rect class="cls-3" x="152.99" y="454.13" width="19.52" height="32.53" rx="3"/><rect class="cls-2" x="37.95" y="502.88" width="19.52" height="32.53" rx="3"/><rect class="cls-3" x="37.95" y="502.88" width="19.52" height="32.53" rx="3"/><rect class="cls-2" x="181.57" y="503.2" width="19.52" height="32.53" rx="3"/><rect class="cls-3" x="181.57" y="503.2" width="19.52" height="32.53" rx="3"/><rect class="cls-2" x="65.14" y="502.88" width="19.52" height="32.53" rx="3"/><rect class="cls-3" x="65.14" y="502.88" width="19.52" height="32.53" rx="3"/><rect class="cls-2" x="93.72" y="502.88" width="19.52" height="32.53" rx="3"/><rect class="cls-3" x="93.72" y="502.88" width="19.52" height="32.53" rx="3"/><rect class="cls-2" x="123.01" y="502.88" width="19.52" height="32.53" rx="3"/><rect class="cls-3" x="123.01" y="502.88" width="19.52" height="32.53" rx="3"/><rect class="cls-2" x="152.99" y="502.88" width="19.52" height="32.53" rx="3"/><rect class="cls-3" x="152.99" y="502.88" width="19.52" height="32.53" rx="3"/><rect class="cls-2" x="37.95" y="546.33" width="19.52" height="32.53" rx="3"/><rect class="cls-3" x="37.95" y="546.33" width="19.52" height="32.53" rx="3"/><rect class="cls-2" x="37.95" y="546.33" width="19.52" height="32.53" rx="3"/><rect class="cls-3" x="37.95" y="546.33" width="19.52" height="32.53" rx="3"/><rect class="cls-2" x="181.57" y="546.65" width="19.52" height="32.53" rx="3"/><rect class="cls-3" x="181.57" y="546.65" width="19.52" height="32.53" rx="3"/><rect class="cls-2" x="181.57" y="546.65" width="19.52" height="32.53" rx="3"/><rect class="cls-3" x="181.57" y="546.65" width="19.52" height="32.53" rx="3"/><rect class="cls-2" x="65.14" y="546.33" width="19.52" height="32.53" rx="3"/><rect class="cls-3" x="65.14" y="546.33" width="19.52" height="32.53" rx="3"/><rect class="cls-2" x="65.14" y="546.33" width="19.52" height="32.53" rx="3"/><rect class="cls-3" x="65.14" y="546.33" width="19.52" height="32.53" rx="3"/><rect class="cls-2" x="93.72" y="546.33" width="19.52" height="32.53" rx="3"/><rect class="cls-3" x="93.72" y="546.33" width="19.52" height="32.53" rx="3"/><rect class="cls-2" x="93.72" y="546.33" width="19.52" height="32.53" rx="3"/><rect class="cls-3" x="93.72" y="546.33" width="19.52" height="32.53" rx="3"/><rect class="cls-2" x="123.01" y="546.33" width="19.52" height="32.53" rx="3"/><rect class="cls-3" x="123.01" y="546.33" width="19.52" height="32.53" rx="3"/><rect class="cls-2" x="123.01" y="546.33" width="19.52" height="32.53" rx="3"/><rect class="cls-3" x="123.01" y="546.33" width="19.52" height="32.53" rx="3"/><rect class="cls-2" x="152.99" y="546.33" width="19.52" height="32.53" rx="3"/><rect class="cls-3" x="152.99" y="546.33" width="19.52" height="32.53" rx="3"/><rect class="cls-2" x="152.99" y="546.33" width="19.52" height="32.53" rx="3"/><rect class="cls-3" x="152.99" y="546.33" width="19.52" height="32.53" rx="3"/><rect class="cls-2" x="37.95" y="595.08" width="19.52" height="32.53" rx="3"/><rect class="cls-3" x="37.95" y="595.08" width="19.52" height="32.53" rx="3"/><rect class="cls-2" x="181.57" y="595.4" width="19.52" height="32.53" rx="3"/><rect class="cls-3" x="181.57" y="595.4" width="19.52" height="32.53" rx="3"/><rect class="cls-2" x="65.14" y="595.08" width="19.52" height="32.53" rx="3"/><rect class="cls-3" x="65.14" y="595.08" width="19.52" height="32.53" rx="3"/><rect class="cls-2" x="93.72" y="595.08" width="19.52" height="32.53" rx="3"/><rect class="cls-3" x="93.72" y="595.08" width="19.52" height="32.53" rx="3"/><rect class="cls-2" x="123.01" y="595.08" width="19.52" height="32.53" rx="3"/><rect class="cls-3" x="123.01" y="595.08" width="19.52" height="32.53" rx="3"/><rect class="cls-2" x="152.99" y="595.08" width="19.52" height="32.53" rx="3"/><rect class="cls-3" x="152.99" y="595.08" width="19.52" height="32.53" rx="3"/><rect class="cls-2" x="37.95" y="641.71" width="19.52" height="32.53" rx="3"/><rect class="cls-3" x="37.95" y="641.71" width="19.52" height="32.53" rx="3"/><rect class="cls-2" x="37.95" y="641.71" width="19.52" height="32.53" rx="3"/><rect class="cls-3" x="37.95" y="641.71" width="19.52" height="32.53" rx="3"/><rect class="cls-2" x="181.57" y="642.03" width="19.52" height="32.53" rx="3"/><rect class="cls-3" x="181.57" y="642.03" width="19.52" height="32.53" rx="3"/><rect class="cls-2" x="181.57" y="642.03" width="19.52" height="32.53" rx="3"/><rect class="cls-3" x="181.57" y="642.03" width="19.52" height="32.53" rx="3"/><rect class="cls-2" x="65.14" y="641.71" width="19.52" height="32.53" rx="3"/><rect class="cls-3" x="65.14" y="641.71" width="19.52" height="32.53" rx="3"/><rect class="cls-2" x="65.14" y="641.71" width="19.52" height="32.53" rx="3"/><rect class="cls-3" x="65.14" y="641.71" width="19.52" height="32.53" rx="3"/><rect class="cls-2" x="93.72" y="641.71" width="19.52" height="32.53" rx="3"/><rect class="cls-3" x="93.72" y="641.71" width="19.52" height="32.53" rx="3"/><rect class="cls-2" x="93.72" y="641.71" width="19.52" height="32.53" rx="3"/><rect class="cls-3" x="93.72" y="641.71" width="19.52" height="32.53" rx="3"/><rect class="cls-2" x="123.01" y="641.71" width="19.52" height="32.53" rx="3"/><rect class="cls-3" x="123.01" y="641.71" width="19.52" height="32.53" rx="3"/><rect class="cls-2" x="123.01" y="641.71" width="19.52" height="32.53" rx="3"/><rect class="cls-3" x="123.01" y="641.71" width="19.52" height="32.53" rx="3"/><rect class="cls-2" x="152.99" y="641.71" width="19.52" height="32.53" rx="3"/><rect class="cls-3" x="152.99" y="641.71" width="19.52" height="32.53" rx="3"/><rect class="cls-2" x="152.99" y="641.71" width="19.52" height="32.53" rx="3"/><rect class="cls-3" x="152.99" y="641.71" width="19.52" height="32.53" rx="3"/><rect class="cls-2" x="37.95" y="690.46" width="19.52" height="32.53" rx="3"/><rect class="cls-3" x="37.95" y="690.46" width="19.52" height="32.53" rx="3"/><rect class="cls-2" x="181.57" y="690.78" width="19.52" height="32.53" rx="3"/><rect class="cls-3" x="181.57" y="690.78" width="19.52" height="32.53" rx="3"/><rect class="cls-2" x="65.14" y="690.46" width="19.52" height="32.53" rx="3"/><rect class="cls-3" x="65.14" y="690.46" width="19.52" height="32.53" rx="3"/><rect class="cls-2" x="93.72" y="690.46" width="19.52" height="32.53" rx="3"/><rect class="cls-3" x="93.72" y="690.46" width="19.52" height="32.53" rx="3"/><rect class="cls-2" x="123.01" y="690.46" width="19.52" height="32.53" rx="3"/><rect class="cls-3" x="123.01" y="690.46" width="19.52" height="32.53" rx="3"/><rect class="cls-2" x="152.99" y="690.46" width="19.52" height="32.53" rx="3"/><rect class="cls-3" x="152.99" y="690.46" width="19.52" height="32.53" rx="3"/><rect class="cls-2" x="37.95" y="733.91" width="19.52" height="32.53" rx="3"/><rect class="cls-3" x="37.95" y="733.91" width="19.52" height="32.53" rx="3"/><rect class="cls-2" x="37.95" y="733.91" width="19.52" height="32.53" rx="3"/><rect class="cls-3" x="37.95" y="733.91" width="19.52" height="32.53" rx="3"/><rect class="cls-2" x="181.57" y="734.23" width="19.52" height="32.53" rx="3"/><rect class="cls-3" x="181.57" y="734.23" width="19.52" height="32.53" rx="3"/><rect class="cls-2" x="181.57" y="734.23" width="19.52" height="32.53" rx="3"/><rect class="cls-3" x="181.57" y="734.23" width="19.52" height="32.53" rx="3"/><rect class="cls-2" x="65.14" y="733.91" width="19.52" height="32.53" rx="3"/><rect class="cls-3" x="65.14" y="733.91" width="19.52" height="32.53" rx="3"/><rect class="cls-2" x="65.14" y="733.91" width="19.52" height="32.53" rx="3"/><rect class="cls-3" x="65.14" y="733.91" width="19.52" height="32.53" rx="3"/><rect class="cls-2" x="93.72" y="733.91" width="19.52" height="32.53" rx="3"/><rect class="cls-3" x="93.72" y="733.91" width="19.52" height="32.53" rx="3"/><rect class="cls-2" x="93.72" y="733.91" width="19.52" height="32.53" rx="3"/><rect class="cls-3" x="93.72" y="733.91" width="19.52" height="32.53" rx="3"/><rect class="cls-2" x="123.01" y="733.91" width="19.52" height="32.53" rx="3"/><rect class="cls-3" x="123.01" y="733.91" width="19.52" height="32.53" rx="3"/><rect class="cls-2" x="123.01" y="733.91" width="19.52" height="32.53" rx="3"/><rect class="cls-3" x="123.01" y="733.91" width="19.52" height="32.53" rx="3"/><rect class="cls-2" x="152.99" y="733.91" width="19.52" height="32.53" rx="3"/><rect class="cls-3" x="152.99" y="733.91" width="19.52" height="32.53" rx="3"/><rect class="cls-2" x="152.99" y="733.91" width="19.52" height="32.53" rx="3"/><rect class="cls-3" x="152.99" y="733.91" width="19.52" height="32.53" rx="3"/><rect class="cls-2" x="37.95" y="782.65" width="19.52" height="32.53" rx="3"/><rect class="cls-3" x="37.95" y="782.65" width="19.52" height="32.53" rx="3"/><rect class="cls-2" x="181.57" y="782.98" width="19.52" height="32.53" rx="3"/><rect class="cls-3" x="181.57" y="782.98" width="19.52" height="32.53" rx="3"/><rect class="cls-2" x="65.14" y="782.65" width="19.52" height="32.53" rx="3"/><rect class="cls-3" x="65.14" y="782.65" width="19.52" height="32.53" rx="3"/><rect class="cls-2" x="93.72" y="782.65" width="19.52" height="32.53" rx="3"/><rect class="cls-3" x="93.72" y="782.65" width="19.52" height="32.53" rx="3"/><rect class="cls-2" x="123.01" y="782.65" width="19.52" height="32.53" rx="3"/><rect class="cls-3" x="123.01" y="782.65" width="19.52" height="32.53" rx="3"/><rect class="cls-2" x="152.99" y="782.65" width="19.52" height="32.53" rx="3"/><rect class="cls-3" x="152.99" y="782.65" width="19.52" height="32.53" rx="3"/><rect class="cls-2" x="37.95" y="830.34" width="19.52" height="32.53" rx="3"/><rect class="cls-3" x="37.95" y="830.34" width="19.52" height="32.53" rx="3"/><rect class="cls-2" x="181.57" y="830.67" width="19.52" height="32.53" rx="3"/><rect class="cls-3" x="181.57" y="830.67" width="19.52" height="32.53" rx="3"/><rect class="cls-2" x="65.14" y="830.34" width="19.52" height="32.53" rx="3"/><rect class="cls-3" x="65.14" y="830.34" width="19.52" height="32.53" rx="3"/><rect class="cls-2" x="93.72" y="830.34" width="19.52" height="32.53" rx="3"/><rect class="cls-3" x="93.72" y="830.34" width="19.52" height="32.53" rx="3"/><rect class="cls-2" x="123.01" y="830.34" width="19.52" height="32.53" rx="3"/><rect class="cls-3" x="123.01" y="830.34" width="19.52" height="32.53" rx="3"/><rect class="cls-2" x="152.99" y="830.34" width="19.52" height="32.53" rx="3"/><rect class="cls-3" x="152.99" y="830.34" width="19.52" height="32.53" rx="3"/><rect class="cls-2" x="37.95" y="874.85" width="19.52" height="32.53" rx="3"/><rect class="cls-3" x="37.95" y="874.85" width="19.52" height="32.53" rx="3"/><rect class="cls-2" x="181.57" y="875.18" width="19.52" height="32.53" rx="3"/><rect class="cls-3" x="181.57" y="875.18" width="19.52" height="32.53" rx="3"/><rect class="cls-2" x="65.14" y="874.85" width="19.52" height="32.53" rx="3"/><rect class="cls-3" x="65.14" y="874.85" width="19.52" height="32.53" rx="3"/><rect class="cls-2" x="152.99" y="874.85" width="19.52" height="32.53" rx="3"/><rect class="cls-3" x="152.99" y="874.85" width="19.52" height="32.53" rx="3"/><rect class="cls-4" x="92.15" y="872.74" width="25.88" height="55.64"/><rect class="cls-4" x="119.26" y="872.74" width="25.88" height="55.64"/></g><g id="medium_building"><rect class="cls-2" x="346.48" y="462.23" width="12.64" height="31.03" rx="2"/><rect class="cls-3" x="346.48" y="462.23" width="12.64" height="31.03" rx="2"/><rect class="cls-2" x="355.67" y="465.68" width="12.64" height="31.03" rx="2"/><rect class="cls-3" x="355.67" y="465.68" width="12.64" height="31.03" rx="2"/><rect class="cls-2" x="104.02" y="487.51" width="287.27" height="456.18" rx="10"/><rect class="cls-5" x="104.02" y="487.51" width="287.27" height="456.18" rx="10"/><rect class="cls-2" x="121.26" y="515.09" width="51.71" height="71.24" rx="7"/><rect class="cls-3" x="121.26" y="515.09" width="51.71" height="71.24" rx="7"/><rect class="cls-2" x="118.96" y="580.59" width="56.3" height="11.49" rx="2"/><rect class="cls-3" x="118.96" y="580.59" width="56.3" height="11.49" rx="2"/><line class="cls-6" x1="146.34" y1="514.91" x2="146.34" y2="580.05"/><line class="cls-6" x1="172.75" y1="545.61" x2="121.08" y2="545.61"/><rect class="cls-2" x="220.08" y="515.09" width="51.71" height="71.24" rx="7"/><rect class="cls-3" x="220.08" y="515.09" width="51.71" height="71.24" rx="7"/><rect class="cls-2" x="217.78" y="580.59" width="56.3" height="11.49" rx="2"/><rect class="cls-3" x="217.78" y="580.59" width="56.3" height="11.49" rx="2"/><line class="cls-6" x1="245.16" y1="514.91" x2="245.16" y2="580.05"/><line class="cls-6" x1="271.57" y1="545.61" x2="219.91" y2="545.61"/><rect class="cls-2" x="318.9" y="515.09" width="51.71" height="71.24" rx="7"/><rect class="cls-3" x="318.9" y="515.09" width="51.71" height="71.24" rx="7"/><rect class="cls-2" x="316.6" y="580.59" width="56.3" height="11.49" rx="2"/><rect class="cls-3" x="316.6" y="580.59" width="56.3" height="11.49" rx="2"/><line class="cls-6" x1="343.98" y1="514.91" x2="343.98" y2="580.05"/><line class="cls-6" x1="370.39" y1="545.61" x2="318.73" y2="545.61"/><rect class="cls-2" x="121.26" y="632.3" width="51.71" height="71.24" rx="7"/><rect class="cls-3" x="121.26" y="632.3" width="51.71" height="71.24" rx="7"/><rect class="cls-2" x="118.96" y="697.8" width="56.3" height="11.49" rx="2"/><rect class="cls-3" x="118.96" y="697.8" width="56.3" height="11.49" rx="2"/><line class="cls-6" x1="146.34" y1="632.12" x2="146.34" y2="697.25"/><line class="cls-6" x1="172.75" y1="662.81" x2="121.08" y2="662.81"/><rect class="cls-2" x="220.08" y="632.3" width="51.71" height="71.24" rx="7"/><rect class="cls-3" x="220.08" y="632.3" width="51.71" height="71.24" rx="7"/><rect class="cls-2" x="217.78" y="697.8" width="56.3" height="11.49" rx="2"/><rect class="cls-3" x="217.78" y="697.8" width="56.3" height="11.49" rx="2"/><line class="cls-6" x1="245.16" y1="632.12" x2="245.16" y2="697.25"/><line class="cls-6" x1="271.57" y1="662.81" x2="219.91" y2="662.81"/><rect class="cls-2" x="318.9" y="632.3" width="51.71" height="71.24" rx="7"/><rect class="cls-3" x="318.9" y="632.3" width="51.71" height="71.24" rx="7"/><rect class="cls-2" x="316.6" y="697.8" width="56.3" height="11.49" rx="2"/><rect class="cls-3" x="316.6" y="697.8" width="56.3" height="11.49" rx="2"/><line class="cls-6" x1="343.98" y1="632.12" x2="343.98" y2="697.25"/><line class="cls-6" x1="370.39" y1="662.81" x2="318.73" y2="662.81"/><rect class="cls-2" x="121.26" y="743.76" width="51.71" height="71.24" rx="7"/><rect class="cls-3" x="121.26" y="743.76" width="51.71" height="71.24" rx="7"/><rect class="cls-2" x="118.96" y="809.26" width="56.3" height="11.49" rx="2"/><rect class="cls-3" x="118.96" y="809.26" width="56.3" height="11.49" rx="2"/><line class="cls-6" x1="146.34" y1="743.58" x2="146.34" y2="808.71"/><line class="cls-6" x1="172.75" y1="774.27" x2="121.08" y2="774.27"/><rect class="cls-2" x="220.08" y="743.76" width="51.71" height="71.24" rx="7"/><rect class="cls-3" x="220.08" y="743.76" width="51.71" height="71.24" rx="7"/><rect class="cls-2" x="217.78" y="809.26" width="56.3" height="11.49" rx="2"/><rect class="cls-3" x="217.78" y="809.26" width="56.3" height="11.49" rx="2"/><line class="cls-6" x1="245.16" y1="743.58" x2="245.16" y2="808.71"/><line class="cls-6" x1="271.57" y1="774.27" x2="219.91" y2="774.27"/><rect class="cls-2" x="318.9" y="743.76" width="51.71" height="71.24" rx="7"/><rect class="cls-3" x="318.9" y="743.76" width="51.71" height="71.24" rx="7"/><rect class="cls-2" x="316.6" y="809.26" width="56.3" height="11.49" rx="2"/><rect class="cls-3" x="316.6" y="809.26" width="56.3" height="11.49" rx="2"/><line class="cls-6" x1="343.98" y1="743.58" x2="343.98" y2="808.71"/><line class="cls-6" x1="370.39" y1="774.27" x2="318.73" y2="774.27"/><rect class="cls-2" x="121.26" y="846.03" width="51.71" height="71.24" rx="7"/><rect class="cls-3" x="121.26" y="846.03" width="51.71" height="71.24" rx="7"/><rect class="cls-2" x="118.96" y="911.52" width="56.3" height="11.49" rx="2"/><rect class="cls-3" x="118.96" y="911.52" width="56.3" height="11.49" rx="2"/><line class="cls-6" x1="146.34" y1="845.84" x2="146.34" y2="910.98"/><line class="cls-6" x1="172.75" y1="876.54" x2="121.08" y2="876.54"/><rect class="cls-2" x="318.9" y="846.03" width="51.71" height="71.24" rx="7"/><rect class="cls-3" x="318.9" y="846.03" width="51.71" height="71.24" rx="7"/><rect class="cls-2" x="316.6" y="911.52" width="56.3" height="11.49" rx="2"/><rect class="cls-3" x="316.6" y="911.52" width="56.3" height="11.49" rx="2"/><line class="cls-6" x1="343.98" y1="845.84" x2="343.98" y2="910.98"/><line class="cls-6" x1="370.39" y1="876.54" x2="318.73" y2="876.54"/><rect class="cls-2" x="215.49" y="836.83" width="62.05" height="106.86" rx="2"/><rect class="cls-3" x="215.49" y="836.83" width="62.05" height="106.86" rx="2"/><circle class="cls-1" cx="266.04" cy="886.24" r="4.6"/></g><g id="house"><path class="cls-2" d="M240,711.06a3,3,0,0,0-3,3l1,237.44a3,3,0,0,0,3,3H723.47a3,3,0,0,0,3-3l-1-237.44a3,3,0,0,0-3-3Z" transform="translate(0.5 0.02)"/><path class="cls-5" d="M240,711.06a3,3,0,0,0-3,3l1,237.44a3,3,0,0,0,3,3H723.47a3,3,0,0,0,3-3l-1-237.44a3,3,0,0,0-3-3Z" transform="translate(0.5 0.02)"/><rect class="cls-4" x="383.84" y="728.28" width="18.55" height="224.6"/><path class="cls-2" d="M686.7,534.79a4.3,4.3,0,0,1,3.88,2.86l57.87,189.21a2.09,2.09,0,0,1-2.13,2.86L222.18,728a2.63,2.63,0,0,1-2.66-3l21.59-185.63a3.48,3.48,0,0,1,3.35-3Z" transform="translate(0.5 0.02)"/><path class="cls-5" d="M686.7,534.79a4.3,4.3,0,0,1,3.88,2.86l57.87,189.21a2.09,2.09,0,0,1-2.13,2.86L222.18,728a2.63,2.63,0,0,1-2.66-3l21.59-185.63a3.48,3.48,0,0,1,3.35-3Z" transform="translate(0.5 0.02)"/><rect class="cls-2" x="454.94" y="805.33" width="61.83" height="149.19" rx="3"/><rect class="cls-3" x="454.94" y="805.33" width="61.83" height="149.19" rx="3"/><rect class="cls-4" x="573.95" y="728.28" width="18.55" height="224.6"/><path class="cls-2" d="M343.06,744.66c-1.65,0-2.16-1.06-1.14-2.36L482,565a2.24,2.24,0,0,1,3.7,0L624.16,742.29c1,1.3.49,2.37-1.16,2.37Z" transform="translate(0.5 0.02)"/><path class="cls-5" d="M343.06,744.66c-1.65,0-2.16-1.06-1.14-2.36L482,565a2.24,2.24,0,0,1,3.7,0L624.16,742.29c1,1.3.49,2.37-1.16,2.37Z" transform="translate(0.5 0.02)"/><rect class="cls-2" x="274.1" y="786.04" width="64.92" height="58.73" rx="3"/><rect class="cls-3" x="274.1" y="786.04" width="64.92" height="58.73" rx="3"/><rect class="cls-2" x="279.51" y="791.45" width="54.1" height="47.11" rx="3"/><rect class="cls-3" x="279.51" y="791.45" width="54.1" height="47.11" rx="3"/><line class="cls-2" x1="306.02" y1="792.13" x2="306.02" y2="838.77"/><line class="cls-3" x1="306.02" y1="792.13" x2="306.02" y2="838.77"/><line class="cls-2" x1="333.39" y1="814.56" x2="279.86" y2="814.56"/><line class="cls-3" x1="333.39" y1="814.56" x2="279.86" y2="814.56"/><ellipse class="cls-2" cx="504.4" cy="880.74" rx="4.64" ry="4.92"/><ellipse class="cls-3" cx="504.4" cy="880.74" rx="4.64" ry="4.92"/><rect class="cls-2" x="628.05" y="786.04" width="64.92" height="58.73" rx="3"/><rect class="cls-3" x="628.05" y="786.04" width="64.92" height="58.73" rx="3"/><rect class="cls-2" x="633.46" y="791.45" width="54.1" height="47.11" rx="3"/><rect class="cls-3" x="633.46" y="791.45" width="54.1" height="47.11" rx="3"/><line class="cls-2" x1="659.96" y1="792.13" x2="659.96" y2="838.77"/><line class="cls-3" x1="659.96" y1="792.13" x2="659.96" y2="838.77"/><line class="cls-2" x1="687.33" y1="814.56" x2="633.81" y2="814.56"/><line class="cls-3" x1="687.33" y1="814.56" x2="633.81" y2="814.56"/></g><g id="rolls"><path class="cls-1" d="M1466.5,941.5s17-49,74-48c0,0,4-30,27-30s74,0,79,9,10,23,10,23l100,3a92.14,92.14,0,0,1,19.12,31c6.88,19-33.89,34.54-33.89,34.54l-219.23-.59S1461.5,972.5,1466.5,941.5Z" transform="translate(0.5 0.02)"/><line class="cls-1" x1="1649" y1="899.52" x2="1759.99" y2="902.2"/><path class="cls-1" d="M1540.5,893.5s5,7,24,5" transform="translate(0.5 0.02)"/><circle class="cls-1" cx="1508" cy="950.52" r="31"/><circle class="cls-1" cx="1508" cy="950.52" r="24"/><circle class="cls-1" cx="1764" cy="950.52" r="31"/><circle class="cls-1" cx="1764" cy="950.52" r="24"/><path class="cls-1" d="M1647.5,874.5s-4-3-5,1,8,18,8,18h5Z" transform="translate(0.5 0.02)"/><path class="cls-6" d="M1640.5,899.5s5-21-14-24-51,0-51,0a11.79,11.79,0,0,0-5,10v13Z" transform="translate(0.5 0.02)"/><path class="cls-1" d="M1648.5,899.5l12,41s6,23-16,23h-78s-5-64-2-65Z" transform="translate(0.5 0.02)"/><path class="cls-1" d="M1595.5,898.5s-4-15,11-15,25-1,31,1,3,15,3,15Z" transform="translate(0.5 0.02)"/></g></svg>